<?xml version="1.0" standalone="no"?>
<!DOCTYPE svg PUBLIC "-//W3C//DTD SVG 1.1//EN" "http://www.w3.org/Graphics/SVG/1.1/DTD/svg11.dtd">
<svg width="100%" height="100%" viewBox="0 0 1361 458" version="1.1" xmlns="http://www.w3.org/2000/svg" xmlns:xlink="http://www.w3.org/1999/xlink" xml:space="preserve" style="fill-rule:evenodd;clip-rule:evenodd;stroke-linejoin:round;stroke-miterlimit:1.41421;">
    <g transform="matrix(1,0,0,1,-564.931,-1174.25)">
        <g transform="matrix(4.16667,0,0,4.16667,0,0)">
            <path d="M145.366,391.187L142.343,391.187L136.821,375.775L139.993,375.775L142.751,384.141C143.25,385.635 143.691,387.078 143.896,387.926C144.073,387.078 144.486,385.635 144.953,384.141L147.598,375.775L150.798,375.775L145.366,391.187Z" style="fill:rgb(35,31,32);fill-rule:nonzero;" class="logo-text"/>
        </g>
        <g transform="matrix(4.16667,0,0,4.16667,0,0)">
            <path d="M154.937,373.776C153.849,373.776 152.967,372.898 152.967,371.839C152.967,370.755 153.849,369.877 154.937,369.877C155.993,369.877 156.874,370.755 156.874,371.839C156.874,372.898 155.993,373.776 154.937,373.776M153.41,375.775L156.433,375.775L156.433,391.187L153.41,391.187L153.41,375.775Z" style="fill:rgb(35,31,32);fill-rule:nonzero;" class="logo-text"/>
        </g>
        <g transform="matrix(4.16667,0,0,4.16667,0,0)">
            <path d="M165.298,391.508C163.212,391.508 160.954,390.685 159.398,389.542L160.777,387.251C162.216,388.251 163.832,388.778 165.268,388.778C167.175,388.778 168.085,388.162 168.085,387.074C168.085,385.905 166.736,385.344 164.505,384.492C161.189,383.201 159.982,382.083 159.982,379.649C159.982,376.889 162.159,375.451 165.241,375.451C167.175,375.451 169.087,376.155 170.466,377.151L169.144,379.475C167.882,378.59 166.62,378.151 165.151,378.151C163.684,378.151 163.039,378.737 163.039,379.56C163.039,380.323 163.568,380.881 165.886,381.792C169.32,383.112 171.08,384.053 171.08,386.956C171.08,390.364 168.323,391.508 165.298,391.508" style="fill:rgb(35,31,32);fill-rule:nonzero;" class="logo-text"/>
        </g>
        <g transform="matrix(4.16667,0,0,4.16667,0,0)">
            <path d="M183.471,391.187L183.471,389.715C182.707,390.833 181.182,391.512 179.594,391.512C176.014,391.512 174.107,389.162 174.107,384.61L174.107,375.775L177.128,375.775L177.128,384.492C177.128,387.605 178.303,388.719 180.301,388.719C182.326,388.719 183.471,387.28 183.471,384.787L183.471,375.775L186.492,375.775L186.492,391.187L183.471,391.187Z" style="fill:rgb(35,31,32);fill-rule:nonzero;" class="logo-text"/>
        </g>
        <g transform="matrix(4.16667,0,0,4.16667,0,0)">
            <path d="M199.062,391.187L199.062,389.66C198,390.715 196.504,391.512 194.831,391.512C192.337,391.512 189.49,390.099 189.49,386.314C189.49,382.879 192.131,381.323 195.624,381.323C197.062,381.323 198.208,381.526 199.062,381.91L199.062,380.762C199.062,379.091 198.031,378.151 196.153,378.151C194.571,378.151 193.335,378.446 192.131,379.121L190.959,376.833C192.424,375.922 194.067,375.451 196.244,375.451C199.674,375.451 202.028,377.122 202.028,380.619L202.028,391.187L199.062,391.187ZM199.062,384.61C198.241,384.197 197.181,383.935 195.538,383.935C193.599,383.935 192.369,384.816 192.369,386.226C192.369,387.752 193.335,388.778 195.333,388.778C196.946,388.778 198.355,387.782 199.062,386.812L199.062,384.61Z" style="fill:rgb(35,31,32);fill-rule:nonzero;" class="logo-text"/>
        </g>
        <g transform="matrix(4.16667,0,0,4.16667,0,0)">
            <path d="M205.783,371.371L205.783,391.187L208.808,391.187L208.808,369.785L205.783,371.371Z" style="fill:rgb(35,31,32);fill-rule:nonzero;" class="logo-text"/>
        </g>
        <g transform="matrix(4.16667,0,0,4.16667,0,0)">
            <path d="M229.562,380.209C228.3,378.914 227.186,378.332 225.803,378.332C223.606,378.332 222.193,380.294 222.193,383.437C222.193,386.458 223.484,388.63 225.895,388.63C227.332,388.63 228.183,387.985 229.388,386.723L231.323,388.63C230.121,390.162 228.594,391.508 225.803,391.508C222.046,391.508 219.141,388.339 219.141,383.525C219.141,378.417 222.136,375.451 225.895,375.451C228.153,375.451 229.914,376.362 231.356,378.062L229.562,380.209Z" style="fill:rgb(35,31,32);fill-rule:nonzero;" class="logo-text"/>
        </g>
        <g transform="matrix(4.16667,0,0,4.16667,0,0)">
            <path d="M240.514,391.508C236.639,391.508 233.734,388.31 233.734,383.492C233.734,378.442 236.725,375.451 240.6,375.451C244.536,375.451 247.471,378.59 247.471,383.407C247.471,388.513 244.475,391.508 240.514,391.508M240.482,378.328C238.194,378.328 236.785,380.349 236.785,383.407C236.785,386.783 238.341,388.631 240.63,388.631C242.923,388.631 244.418,386.31 244.418,383.492C244.418,380.349 242.923,378.328 240.482,378.328" style="fill:rgb(35,31,32);fill-rule:nonzero;" class="logo-text"/>
        </g>
        <g transform="matrix(4.16667,0,0,4.16667,0,0)">
            <path d="M268.373,391.187L268.373,382.466C268.373,379.357 267.407,378.239 265.407,378.239C263.384,378.239 262.443,379.682 262.443,382.171L262.443,391.187L259.42,391.187L259.42,382.466C259.42,379.357 258.45,378.239 256.456,378.239C254.428,378.239 253.491,379.682 253.491,382.171L253.491,391.187L250.468,391.187L250.468,375.775L253.491,375.775L253.491,377.24C254.254,376.125 255.575,375.451 257.163,375.451C259.247,375.451 260.566,376.244 261.385,377.711C262.502,376.332 263.705,375.451 266.114,375.451C269.696,375.451 271.398,377.8 271.398,382.352L271.398,391.187L268.373,391.187Z" style="fill:rgb(35,31,32);fill-rule:nonzero;" class="logo-text"/>
        </g>
        <g transform="matrix(4.16667,0,0,4.16667,0,0)">
            <path d="M292.915,391.187L292.915,382.466C292.915,379.357 291.949,378.239 289.949,378.239C287.924,378.239 286.989,379.682 286.989,382.171L286.989,391.187L283.962,391.187L283.962,382.466C283.962,379.357 282.992,378.239 280.997,378.239C278.973,378.239 278.032,379.682 278.032,382.171L278.032,391.187L275.01,391.187L275.01,375.775L278.032,375.775L278.032,377.24C278.794,376.125 280.117,375.451 281.703,375.451C283.785,375.451 285.107,376.244 285.93,377.711C287.044,376.332 288.25,375.451 290.656,375.451C294.237,375.451 295.94,377.8 295.94,382.352L295.94,391.187L292.915,391.187Z" style="fill:rgb(35,31,32);fill-rule:nonzero;" class="logo-text"/>
        </g>
        <g transform="matrix(4.16667,0,0,4.16667,0,0)">
            <path d="M308.799,391.187L308.799,389.715C308.039,390.833 306.512,391.512 304.922,391.512C301.344,391.512 299.437,389.162 299.437,384.61L299.437,375.775L302.462,375.775L302.462,384.492C302.462,387.605 303.627,388.719 305.627,388.719C307.655,388.719 308.799,387.28 308.799,384.787L308.799,375.775L311.824,375.775L311.824,391.187L308.799,391.187Z" style="fill:rgb(35,31,32);fill-rule:nonzero;" class="logo-text"/>
        </g>
        <g transform="matrix(4.16667,0,0,4.16667,0,0)">
            <path d="M324.912,391.187L324.912,382.466C324.912,379.357 323.742,378.239 321.747,378.239C319.718,378.239 318.574,379.682 318.574,382.171L318.574,391.187L315.554,391.187L315.554,375.775L318.574,375.775L318.574,377.24C319.342,376.125 320.869,375.451 322.451,375.451C326.025,375.451 327.936,377.8 327.936,382.352L327.936,391.187L324.912,391.187Z" style="fill:rgb(35,31,32);fill-rule:nonzero;" class="logo-text"/>
        </g>
        <g transform="matrix(4.16667,0,0,4.16667,0,0)">
            <path d="M333.227,373.776C332.142,373.776 331.257,372.898 331.257,371.839C331.257,370.755 332.142,369.877 333.227,369.877C334.29,369.877 335.164,370.755 335.164,371.839C335.164,372.898 334.29,373.776 333.227,373.776M331.7,375.775L334.721,375.775L334.721,391.187L331.7,391.187L331.7,375.775Z" style="fill:rgb(35,31,32);fill-rule:nonzero;" class="logo-text"/>
        </g>
        <g transform="matrix(4.16667,0,0,4.16667,0,0)">
            <path d="M348.284,380.209C347.022,378.914 345.908,378.332 344.529,378.332C342.33,378.332 340.914,380.294 340.914,383.437C340.914,386.458 342.213,388.63 344.614,388.63C346.053,388.63 346.904,387.985 348.107,386.723L350.048,388.63C348.845,390.162 347.318,391.508 344.529,391.508C340.766,391.508 337.863,388.339 337.863,383.525C337.863,378.417 340.855,375.451 344.614,375.451C346.875,375.451 348.638,376.362 350.077,378.062L348.284,380.209Z" style="fill:rgb(35,31,32);fill-rule:nonzero;" class="logo-text"/>
        </g>
        <g transform="matrix(4.16667,0,0,4.16667,0,0)">
            <path d="M362.021,391.187L362.021,389.66C360.97,390.715 359.476,391.512 357.801,391.512C355.304,391.512 352.456,390.099 352.456,386.314C352.456,382.879 355.093,381.323 358.59,381.323C360.029,381.323 361.17,381.526 362.021,381.91L362.021,380.762C362.021,379.091 361,378.151 359.118,378.151C357.536,378.151 356.296,378.446 355.093,379.121L353.92,376.833C355.388,375.922 357.034,375.451 359.203,375.451C362.641,375.451 364.987,377.122 364.987,380.619L364.987,391.187L362.021,391.187ZM362.021,384.61C361.202,384.197 360.147,383.935 358.501,383.935C356.562,383.935 355.331,384.816 355.331,386.226C355.331,387.752 356.296,388.778 358.295,388.778C359.908,388.778 361.316,387.782 362.021,386.812L362.021,384.61Z" style="fill:rgb(35,31,32);fill-rule:nonzero;" class="logo-text"/>
        </g>
        <g transform="matrix(4.16667,0,0,4.16667,0,0)">
            <path d="M375.969,390.803C375.242,391.216 374.209,391.511 373.007,391.511C370.86,391.511 369.539,390.187 369.539,387.428L369.539,378.531L367.337,378.531L367.337,375.775L369.539,375.775L369.539,371.37L372.505,369.784L372.505,375.775L376.327,375.775L376.327,378.531L372.505,378.531L372.505,386.897C372.505,388.339 372.978,388.748 374.092,388.748C374.885,388.748 375.766,388.453 376.327,388.132L375.969,390.803Z" style="fill:rgb(35,31,32);fill-rule:nonzero;" class="logo-text"/>
        </g>
        <g transform="matrix(4.16667,0,0,4.16667,0,0)">
            <path d="M381.369,373.776C380.285,373.776 379.403,372.898 379.403,371.839C379.403,370.755 380.285,369.877 381.369,369.877C382.432,369.877 383.306,370.755 383.306,371.839C383.306,372.898 382.432,373.776 381.369,373.776M379.846,375.775L382.864,375.775L382.864,391.187L379.846,391.187L379.846,375.775Z" style="fill:rgb(35,31,32);fill-rule:nonzero;" class="logo-text"/>
        </g>
        <g transform="matrix(4.16667,0,0,4.16667,0,0)">
            <path d="M392.79,391.508C388.913,391.508 386.01,388.31 386.01,383.492C386.01,378.442 389.002,375.451 392.882,375.451C396.814,375.451 399.747,378.59 399.747,383.407C399.747,388.513 396.756,391.508 392.79,391.508M392.761,378.328C390.47,378.328 389.061,380.349 389.061,383.407C389.061,386.783 390.617,388.631 392.904,388.631C395.199,388.631 396.696,386.31 396.696,383.492C396.696,380.349 395.199,378.328 392.761,378.328" style="fill:rgb(35,31,32);fill-rule:nonzero;" class="logo-text"/>
        </g>
        <g transform="matrix(4.16667,0,0,4.16667,0,0)">
            <path d="M412.108,391.187L412.108,382.466C412.108,379.357 410.931,378.239 408.943,378.239C406.914,378.239 405.763,379.682 405.763,382.171L405.763,391.187L402.742,391.187L402.742,375.775L405.763,375.775L405.763,377.24C406.531,376.125 408.057,375.451 409.648,375.451C413.222,375.451 415.132,377.8 415.132,382.352L415.132,391.187L412.108,391.187Z" style="fill:rgb(35,31,32);fill-rule:nonzero;" class="logo-text"/>
        </g>
        <g transform="matrix(4.16667,0,0,4.16667,0,0)">
            <path d="M426.089,371.371L426.089,391.187L429.11,391.187L429.11,369.785L426.089,371.371Z" style="fill:rgb(35,31,32);fill-rule:nonzero;" class="logo-text"/>
        </g>
        <g transform="matrix(4.16667,0,0,4.16667,0,0)">
            <path d="M440.35,390.803C439.613,391.216 438.587,391.511 437.384,391.511C435.242,391.511 433.924,390.187 433.924,387.428L433.924,378.531L431.718,378.531L431.718,375.775L433.924,375.775L433.924,371.37L436.89,369.784L436.89,375.775L440.704,375.775L440.704,378.531L436.89,378.531L436.89,386.897C436.89,388.339 437.355,388.748 438.469,388.748C439.266,388.748 440.144,388.453 440.704,388.132L440.35,390.803Z" style="fill:rgb(35,31,32);fill-rule:nonzero;" class="logo-text"/>
        </g>
        <g transform="matrix(4.16667,0,0,4.16667,0,0)">
            <path d="M452.335,391.187L452.335,389.715C451.221,390.748 449.926,391.512 448.311,391.512C444.99,391.512 442.379,389.099 442.379,383.23C442.379,377.948 445.256,375.451 448.458,375.451C450.011,375.451 451.482,376.273 452.335,377.213L452.335,371.341L455.326,369.784L455.326,391.187L452.335,391.187ZM452.361,380.264C451.686,379.357 450.276,378.239 448.75,378.239C446.577,378.239 445.403,379.884 445.403,383.142C445.403,387.015 446.636,388.719 448.867,388.719C450.307,388.719 451.567,387.752 452.361,386.753L452.361,380.264Z" style="fill:rgb(35,31,32);fill-rule:nonzero;" class="logo-text"/>
        </g>
        <g transform="matrix(4.16667,0,0,4.16667,0,0)">
            <path d="M459.68,391.508C458.418,391.508 457.356,390.453 457.356,389.192C457.356,387.93 458.418,386.841 459.68,386.841C460.942,386.841 461.996,387.93 461.996,389.192C461.996,390.453 460.942,391.508 459.68,391.508" style="fill:rgb(35,31,32);fill-rule:nonzero;" class="logo-text"/>
        </g>
        <g transform="matrix(4.16667,0,0,4.16667,0,0)">
            <path d="M205.479,309.354C203.541,308.303 201.516,307.683 198.531,307.683C192.814,307.683 189.466,311.729 189.466,319.557L189.466,345.951L180.404,345.951L180.404,299.767L189.466,299.767L189.466,304.164C191.578,301.091 195.449,298.8 200.023,298.8C203.718,298.8 206.007,299.505 207.855,300.737L205.479,309.354Z" style="fill:white;fill-rule:nonzero;"/>
        </g>
        <g transform="matrix(4.16667,0,0,4.16667,0,0)">
            <path d="M245.936,326.068L215.407,326.068C216.377,334.958 221.391,338.739 227.023,338.739C230.891,338.739 233.973,337.33 237.048,335.043L242.415,340.849C238.367,344.723 233.53,346.921 226.498,346.921C215.675,346.921 206.522,338.212 206.522,322.903C206.522,307.244 214.795,298.8 226.758,298.8C239.862,298.8 246.2,309.443 246.2,321.937C246.2,323.608 246.022,325.102 245.936,326.068M226.145,306.982C220.072,306.982 216.377,311.202 215.584,318.594L237.048,318.594C236.605,312.257 233.621,306.982 226.145,306.982" style="fill:white;fill-rule:nonzero;"/>
        </g>
        <g transform="matrix(4.16667,0,0,4.16667,0,0)">
            <path d="M287.768,290.002C284.776,290.002 283.548,291.146 283.548,294.487L283.548,299.766L292.082,299.766L292.082,308.214L283.548,308.214L283.548,345.95L274.486,345.95L274.486,308.214L268.503,308.214L268.503,299.766L274.486,299.766L274.486,293.698C274.486,285.251 279.672,282.086 286.185,282.086C288.564,282.086 291.112,282.433 293.048,282.967L293.048,290.88C290.936,290.268 289.358,290.002 287.768,290.002" style="fill:white;fill-rule:nonzero;"/>
        </g>
        <g transform="matrix(4.16667,0,0,4.16667,0,0)">
            <path d="M300.385,345.951L300.385,286.572L309.442,281.825L309.442,345.951L300.385,345.951Z" style="fill:white;fill-rule:nonzero;"/>
        </g>
        <g transform="matrix(4.16667,0,0,4.16667,0,0)">
            <path d="M325.384,293.784C322.127,293.784 319.486,291.142 319.486,287.977C319.486,284.728 322.127,282.087 325.384,282.087C328.542,282.087 331.183,284.728 331.183,287.977C331.183,291.142 328.542,293.784 325.384,293.784M320.803,299.767L329.859,299.767L329.859,345.951L320.803,345.951L320.803,299.767Z" style="fill:white;fill-rule:nonzero;"/>
        </g>
        <g transform="matrix(4.16667,0,0,4.16667,0,0)">
            <path d="M354.475,362.927L351.391,356.066C364.413,355.453 367.227,351.938 367.227,342.347L367.227,341.551C363.881,344.631 360.104,346.921 355.264,346.921C345.414,346.921 337.492,339.706 337.492,322.11C337.492,306.278 346.193,298.801 355.7,298.801C360.362,298.801 364.763,301.264 367.227,304.079L367.227,299.767L376.283,299.767L376.283,341.551C376.283,355.627 371.185,362.4 354.475,362.927M367.397,313.227C365.378,310.498 361.159,307.159 356.58,307.159C350.074,307.159 346.558,312.084 346.558,321.844C346.558,333.461 350.254,338.562 356.931,338.562C361.244,338.562 365.025,335.656 367.397,332.668L367.397,313.227Z" style="fill:white;fill-rule:nonzero;"/>
        </g>
        <g transform="matrix(4.16667,0,0,4.16667,0,0)">
            <path d="M412.363,345.951L412.363,319.823C412.363,310.502 408.84,307.159 402.856,307.159C396.789,307.159 393.358,311.464 393.358,318.945L393.358,345.951L384.295,345.951L384.295,286.572L393.358,281.825L393.358,304.168C395.641,300.822 400.222,298.801 404.967,298.801C415.709,298.801 421.419,305.835 421.419,319.472L421.419,345.951L412.363,345.951Z" style="fill:white;fill-rule:nonzero;"/>
        </g>
        <g transform="matrix(4.16667,0,0,4.16667,0,0)">
            <path d="M451.461,344.807C449.27,346.036 446.186,346.921 442.586,346.921C436.163,346.921 432.197,342.959 432.197,334.692L432.197,308.04L425.599,308.04L425.599,299.766L432.197,299.766L432.197,286.572L441.08,281.821L441.08,299.766L452.527,299.766L452.527,308.04L441.08,308.04L441.08,333.106C441.08,337.418 442.486,338.647 445.832,338.647C448.207,338.647 450.841,337.773 452.527,336.803L451.461,344.807Z" style="fill:white;fill-rule:nonzero;"/>
        </g>
        <g transform="matrix(4.16667,0,0,4.16667,0,0)">
            <path d="M156.166,346.921C151.505,346.921 147.109,344.457 144.557,341.639L144.557,358.268L135.584,362.931L135.584,299.767L144.557,299.767L144.557,304.164C147.902,301.091 151.77,298.8 156.605,298.8C166.551,298.8 174.377,306.012 174.377,323.608C174.377,339.44 165.761,346.921 156.166,346.921M154.938,307.159C150.626,307.159 146.843,310.062 144.467,313.054L144.467,332.49C146.492,335.22 150.717,338.562 155.287,338.562C161.794,338.562 165.318,333.634 165.318,323.87C165.318,312.261 161.621,307.159 154.938,307.159" style="fill:white;fill-rule:nonzero;"/>
        </g>
        <g transform="matrix(4.16667,0,0,4.16667,0,0)">
            <rect x="252.484" y="318.569" width="13.191" height="7.455" style="fill:white;fill-rule:nonzero;"/>
        </g>
    </g>
</svg>
