<?xml version="1.0" standalone="no"?>
<!DOCTYPE svg PUBLIC "-//W3C//DTD SVG 1.1//EN" "http://www.w3.org/Graphics/SVG/1.1/DTD/svg11.dtd">
<svg width="100%" height="100%" viewBox="0 0 1329 105" version="1.1" xmlns="http://www.w3.org/2000/svg" xmlns:xlink="http://www.w3.org/1999/xlink" xml:space="preserve" style="fill-rule:evenodd;clip-rule:evenodd;stroke-linejoin:round;stroke-miterlimit:1.41421;padding-right: 0.2rem;">
    <g transform="matrix(1,0,0,1,-566.292,-1532.12)">
        <g transform="matrix(4.16667,0,0,4.16667,0,0)">
            <g transform="matrix(1.38585,0,0,1.38585,-57.0976,-239.968)">
                <path d="M144.493,445.34C144.091,445.119 143.669,444.993 143.045,444.993C141.854,444.993 141.159,445.835 141.159,447.465L141.159,452.965L139.27,452.965L139.27,443.341L141.159,443.341L141.159,444.26C141.597,443.617 142.405,443.142 143.357,443.142C144.128,443.142 144.604,443.285 144.989,443.544L144.493,445.34Z" style="fill:white;fill-rule:nonzero;"/>
            </g>
        </g>
        <g transform="matrix(4.16667,0,0,4.16667,0,0)">
            <g transform="matrix(1.38585,0,0,1.38585,-57.0976,-239.968)">
                <path d="M150.558,444.846C149.293,444.846 148.524,445.724 148.358,447.266L152.83,447.266C152.738,445.946 152.117,444.846 150.558,444.846M154.682,448.823L148.321,448.823C148.524,450.674 149.568,451.464 150.741,451.464C151.549,451.464 152.188,451.169 152.83,450.693L153.948,451.903C153.105,452.707 152.098,453.168 150.632,453.168C148.376,453.168 146.471,451.354 146.471,448.162C146.471,444.902 148.194,443.142 150.685,443.142C153.417,443.142 154.738,445.359 154.738,447.963C154.738,448.31 154.701,448.619 154.682,448.823" style="fill:white;fill-rule:nonzero;"/>
            </g>
        </g>
        <g transform="matrix(4.16667,0,0,4.16667,0,0)">
            <g transform="matrix(1.38585,0,0,1.38585,-57.0976,-239.968)">
                <path d="M160.195,453.168C158.893,453.168 157.482,452.655 156.51,451.939L157.371,450.508C158.269,451.132 159.278,451.464 160.176,451.464C161.368,451.464 161.936,451.076 161.936,450.397C161.936,449.667 161.093,449.316 159.699,448.785C157.628,447.978 156.877,447.284 156.877,445.761C156.877,444.038 158.233,443.142 160.158,443.142C161.368,443.142 162.56,443.581 163.421,444.204L162.594,445.65C161.807,445.101 161.019,444.827 160.103,444.827C159.186,444.827 158.782,445.192 158.782,445.705C158.782,446.185 159.112,446.531 160.56,447.1C162.705,447.926 163.804,448.513 163.804,450.324C163.804,452.452 162.082,453.168 160.195,453.168" style="fill:white;fill-rule:nonzero;"/>
            </g>
        </g>
        <g transform="matrix(4.16667,0,0,4.16667,0,0)">
            <g transform="matrix(1.38585,0,0,1.38585,-57.0976,-239.968)">
                <path d="M169.849,444.846C168.583,444.846 167.814,445.724 167.648,447.266L172.121,447.266C172.029,445.946 171.408,444.846 169.849,444.846M173.973,448.823L167.614,448.823C167.814,450.674 168.858,451.464 170.032,451.464C170.837,451.464 171.479,451.169 172.121,450.693L173.239,451.903C172.396,452.707 171.389,453.168 169.923,453.168C167.667,453.168 165.762,451.354 165.762,448.162C165.762,444.902 167.484,443.142 169.976,443.142C172.707,443.142 174.028,445.359 174.028,447.963C174.028,448.31 173.992,448.619 173.973,448.823" style="fill:white;fill-rule:nonzero;"/>
            </g>
        </g>
        <g transform="matrix(4.16667,0,0,4.16667,0,0)">
            <g transform="matrix(1.38585,0,0,1.38585,-57.0976,-239.968)">
                <path d="M181.885,448.86C181.372,448.602 180.712,448.439 179.686,448.439C178.476,448.439 177.707,448.989 177.707,449.867C177.707,450.823 178.312,451.464 179.557,451.464C180.566,451.464 181.446,450.84 181.885,450.236L181.885,448.86ZM181.885,452.965L181.885,452.014C181.226,452.671 180.291,453.169 179.245,453.169C177.689,453.169 175.911,452.287 175.911,449.923C175.911,447.779 177.56,446.805 179.741,446.805C180.64,446.805 181.354,446.934 181.885,447.174L181.885,446.459C181.885,445.415 181.245,444.828 180.072,444.828C179.081,444.828 178.312,445.012 177.56,445.433L176.827,444.002C177.744,443.434 178.77,443.142 180.125,443.142C182.27,443.142 183.737,444.186 183.737,446.366L183.737,452.965L181.885,452.965Z" style="fill:white;fill-rule:nonzero;"/>
            </g>
        </g>
        <g transform="matrix(4.16667,0,0,4.16667,0,0)">
            <g transform="matrix(1.38585,0,0,1.38585,-57.0976,-239.968)">
                <path d="M191.666,445.34C191.264,445.119 190.842,444.993 190.218,444.993C189.027,444.993 188.331,445.835 188.331,447.465L188.331,452.965L186.442,452.965L186.442,443.341L188.331,443.341L188.331,444.26C188.77,443.617 189.578,443.142 190.53,443.142C191.301,443.142 191.777,443.285 192.162,443.544L191.666,445.34Z" style="fill:white;fill-rule:nonzero;"/>
            </g>
        </g>
        <g transform="matrix(4.16667,0,0,4.16667,0,0)">
            <g transform="matrix(1.38585,0,0,1.38585,-57.0976,-239.968)">
                <path d="M200.15,446.112C199.36,445.304 198.665,444.939 197.804,444.939C196.428,444.939 195.548,446.167 195.548,448.126C195.548,450.014 196.356,451.372 197.857,451.372C198.755,451.372 199.289,450.966 200.039,450.18L201.249,451.372C200.497,452.324 199.545,453.169 197.804,453.169C195.458,453.169 193.643,451.188 193.643,448.181C193.643,444.994 195.511,443.142 197.857,443.142C199.27,443.142 200.369,443.711 201.268,444.773L200.15,446.112Z" style="fill:white;fill-rule:nonzero;"/>
            </g>
        </g>
        <g transform="matrix(4.16667,0,0,4.16667,0,0)">
            <g transform="matrix(1.38585,0,0,1.38585,-57.0976,-239.968)">
                <path d="M209.511,452.965L209.511,447.521C209.511,445.58 208.779,444.883 207.532,444.883C206.267,444.883 205.553,445.779 205.553,447.34L205.553,452.965L203.664,452.965L203.664,440.593L205.553,439.605L205.553,444.26C206.029,443.563 206.982,443.142 207.973,443.142C210.208,443.142 211.4,444.607 211.4,447.446L211.4,452.965L209.511,452.965Z" style="fill:white;fill-rule:nonzero;"/>
            </g>
        </g>
        <g transform="matrix(4.16667,0,0,4.16667,0,0)">
            <g transform="matrix(1.38585,0,0,1.38585,-57.0976,-239.968)">
                <path d="M219.841,454.615L217.952,454.615L223.654,438.487L225.54,438.487L219.841,454.615Z" style="fill:white;fill-rule:nonzero;"/>
            </g>
        </g>
        <g transform="matrix(4.16667,0,0,4.16667,0,0)">
            <g transform="matrix(1.38585,0,0,1.38585,-57.0976,-239.968)">
                <path d="M237.979,446.149C237.558,445.581 236.679,444.883 235.725,444.883C234.369,444.883 233.635,445.909 233.635,447.945C233.635,450.361 234.406,451.427 235.798,451.427C236.697,451.427 237.484,450.823 237.979,450.199L237.979,446.149ZM237.962,452.965L237.962,452.05C237.265,452.689 236.459,453.169 235.45,453.169C233.379,453.169 231.749,451.664 231.749,447.997C231.749,444.699 233.545,443.142 235.542,443.142C236.512,443.142 237.429,443.655 237.962,444.242L237.962,440.575L239.831,439.605L239.831,452.965L237.962,452.965Z" style="fill:white;fill-rule:nonzero;"/>
            </g>
        </g>
        <g transform="matrix(4.16667,0,0,4.16667,0,0)">
            <g transform="matrix(1.38585,0,0,1.38585,-57.0976,-239.968)">
                <path d="M246.242,444.846C244.977,444.846 244.208,445.724 244.042,447.266L248.514,447.266C248.422,445.946 247.801,444.846 246.242,444.846M250.366,448.823L244.005,448.823C244.208,450.674 245.252,451.464 246.425,451.464C247.232,451.464 247.872,451.169 248.514,450.693L249.632,451.903C248.789,452.707 247.782,453.168 246.316,453.168C244.06,453.168 242.155,451.354 242.155,448.162C242.155,444.902 243.878,443.142 246.369,443.142C249.101,443.142 250.422,445.359 250.422,447.963C250.422,448.31 250.385,448.619 250.366,448.823" style="fill:white;fill-rule:nonzero;"/>
            </g>
        </g>
        <g transform="matrix(4.16667,0,0,4.16667,0,0)">
            <g transform="matrix(1.38585,0,0,1.38585,-57.0976,-239.968)">
                <path d="M257.307,452.965L255.418,452.965L251.973,443.341L253.952,443.341L255.675,448.569C255.987,449.501 256.261,450.398 256.39,450.929C256.499,450.398 256.758,449.501 257.051,448.569L258.7,443.341L260.697,443.341L257.307,452.965Z" style="fill:white;fill-rule:nonzero;"/>
            </g>
        </g>
        <g transform="matrix(4.16667,0,0,4.16667,0,0)">
            <g transform="matrix(1.38585,0,0,1.38585,-57.0976,-239.968)">
                <path d="M266.32,444.846C265.055,444.846 264.286,445.724 264.12,447.266L268.592,447.266C268.5,445.946 267.879,444.846 266.32,444.846M270.444,448.823L264.083,448.823C264.286,450.674 265.33,451.464 266.503,451.464C267.311,451.464 267.951,451.169 268.592,450.693L269.71,451.903C268.867,452.707 267.86,453.168 266.394,453.168C264.138,453.168 262.233,451.354 262.233,448.162C262.233,444.902 263.956,443.142 266.447,443.142C269.179,443.142 270.5,445.359 270.5,447.963C270.5,448.31 270.463,448.619 270.444,448.823" style="fill:white;fill-rule:nonzero;"/>
            </g>
        </g>
        <g transform="matrix(4.16667,0,0,4.16667,0,0)">
            <g transform="matrix(1.38585,0,0,1.38585,-57.0976,-239.968)">
                <path d="M272.933,452.965L272.933,440.593L274.822,439.605L274.822,452.965L272.933,452.965Z" style="fill:white;fill-rule:nonzero;"/>
            </g>
        </g>
        <g transform="matrix(4.16667,0,0,4.16667,0,0)">
            <g transform="matrix(1.38585,0,0,1.38585,-57.0976,-239.968)">
                <path d="M281.452,444.939C280.022,444.939 279.142,446.204 279.142,448.107C279.142,450.217 280.115,451.372 281.544,451.372C282.973,451.372 283.909,449.922 283.909,448.163C283.909,446.204 282.973,444.939 281.452,444.939M281.471,453.168C279.053,453.168 277.237,451.169 277.237,448.163C277.237,445.012 279.106,443.142 281.526,443.142C283.982,443.142 285.816,445.101 285.816,448.107C285.816,451.298 283.946,453.168 281.471,453.168" style="fill:white;fill-rule:nonzero;"/>
            </g>
        </g>
        <g transform="matrix(4.16667,0,0,4.16667,0,0)">
            <g transform="matrix(1.38585,0,0,1.38585,-57.0976,-239.968)">
                <path d="M292.17,444.883C291.272,444.883 290.482,445.488 289.988,446.112L289.988,450.161C290.41,450.73 291.288,451.427 292.242,451.427C293.6,451.427 294.332,450.398 294.332,448.365C294.332,445.946 293.563,444.883 292.17,444.883M292.426,453.168C291.454,453.168 290.538,452.655 290.006,452.069L290.006,455.532L288.136,456.503L288.136,443.341L290.006,443.341L290.006,444.26C290.702,443.617 291.51,443.142 292.517,443.142C294.588,443.142 296.22,444.643 296.22,448.31C296.22,451.608 294.424,453.168 292.426,453.168" style="fill:white;fill-rule:nonzero;"/>
            </g>
        </g>
        <g transform="matrix(4.16667,0,0,4.16667,0,0)">
            <g transform="matrix(1.38585,0,0,1.38585,-57.0976,-239.968)">
                <path d="M304.317,454.615L302.424,454.615L308.128,438.487L310.012,438.487L304.317,454.615Z" style="fill:white;fill-rule:nonzero;"/>
            </g>
        </g>
        <g transform="matrix(4.16667,0,0,4.16667,0,0)">
            <g transform="matrix(1.38585,0,0,1.38585,-57.0976,-239.968)">
                <path d="M322.451,446.149C322.031,445.581 321.153,444.883 320.197,444.883C318.844,444.883 318.106,445.909 318.106,447.945C318.106,450.361 318.881,451.427 320.271,451.427C321.168,451.427 321.957,450.823 322.451,450.199L322.451,446.149ZM322.432,452.965L322.432,452.05C321.736,452.689 320.931,453.169 319.921,453.169C317.851,453.169 316.221,451.664 316.221,447.997C316.221,444.699 318.017,443.142 320.016,443.142C320.983,443.142 321.902,443.655 322.432,444.242L322.432,440.575L324.303,439.605L324.303,452.965L322.432,452.965Z" style="fill:white;fill-rule:nonzero;"/>
            </g>
        </g>
        <g transform="matrix(4.16667,0,0,4.16667,0,0)">
            <g transform="matrix(1.38585,0,0,1.38585,-57.0976,-239.968)">
                <path d="M330.715,444.846C329.449,444.846 328.678,445.724 328.516,447.266L332.986,447.266C332.895,445.946 332.272,444.846 330.715,444.846M334.839,448.823L328.479,448.823C328.678,450.674 329.726,451.464 330.899,451.464C331.703,451.464 332.345,451.169 332.986,450.693L334.105,451.903C333.26,452.707 332.256,453.168 330.788,453.168C328.53,453.168 326.627,451.354 326.627,448.162C326.627,444.902 328.35,443.142 330.84,443.142C333.573,443.142 334.894,445.359 334.894,447.963C334.894,448.31 334.858,448.619 334.839,448.823" style="fill:white;fill-rule:nonzero;"/>
            </g>
        </g>
        <g transform="matrix(4.16667,0,0,4.16667,0,0)">
            <g transform="matrix(1.38585,0,0,1.38585,-57.0976,-239.968)">
                <path d="M340.35,453.168C339.051,453.168 337.639,452.655 336.668,451.939L337.528,450.508C338.424,451.132 339.435,451.464 340.335,451.464C341.523,451.464 342.091,451.076 342.091,450.397C342.091,449.667 341.25,449.316 339.856,448.785C337.783,447.978 337.034,447.284 337.034,445.761C337.034,444.038 338.387,443.142 340.313,443.142C341.523,443.142 342.718,443.581 343.578,444.204L342.751,445.65C341.965,445.101 341.176,444.827 340.261,444.827C339.343,444.827 338.941,445.192 338.941,445.705C338.941,446.185 339.269,446.531 340.719,447.1C342.862,447.926 343.961,448.513 343.961,450.324C343.961,452.452 342.239,453.168 340.35,453.168" style="fill:white;fill-rule:nonzero;"/>
            </g>
        </g>
        <g transform="matrix(4.16667,0,0,4.16667,0,0)">
            <g transform="matrix(1.38585,0,0,1.38585,-57.0976,-239.968)">
                <path d="M346.466,443.341L348.355,443.341L348.355,452.965L346.466,452.965L346.466,443.341ZM347.421,442.098C346.742,442.098 346.192,441.545 346.192,440.888C346.192,440.209 346.742,439.66 347.421,439.66C348.081,439.66 348.631,440.209 348.631,440.888C348.631,441.545 348.081,442.098 347.421,442.098" style="fill:white;fill-rule:nonzero;"/>
            </g>
        </g>
        <g transform="matrix(4.16667,0,0,4.16667,0,0)">
            <g transform="matrix(1.38585,0,0,1.38585,-57.0976,-239.968)">
                <path d="M357.038,446.149C356.617,445.581 355.739,444.883 354.788,444.883C353.43,444.883 352.696,445.909 352.696,447.945C352.696,450.361 353.467,451.427 354.861,451.427C355.758,451.427 356.544,450.823 357.038,450.199L357.038,446.149ZM354.345,456.503L353.703,455.072C356.418,454.947 357.005,454.212 357.005,452.213L357.005,452.05C356.308,452.689 355.517,453.169 354.511,453.169C352.456,453.169 350.811,451.664 350.811,447.997C350.811,444.699 352.622,443.142 354.603,443.142C355.573,443.142 356.492,443.655 357.005,444.242L357.005,443.341L358.89,443.341L358.89,452.05C358.89,454.983 357.827,456.392 354.345,456.503" style="fill:white;fill-rule:nonzero;"/>
            </g>
        </g>
        <g transform="matrix(4.16667,0,0,4.16667,0,0)">
            <g transform="matrix(1.38585,0,0,1.38585,-57.0976,-239.968)">
                <path d="M367.521,452.965L367.521,447.521C367.521,445.58 366.787,444.883 365.541,444.883C364.275,444.883 363.559,445.779 363.559,447.34L363.559,452.965L361.67,452.965L361.67,443.341L363.559,443.341L363.559,444.26C364.039,443.563 364.992,443.142 365.98,443.142C368.214,443.142 369.41,444.607 369.41,447.446L369.41,452.965L367.521,452.965Z" style="fill:white;fill-rule:nonzero;"/>
            </g>
        </g>
    </g>
</svg>